<svg id="logo" xmlns="http://www.w3.org/2000/svg" width="310.769" height="106.316" viewBox="0 0 310.769 106.316">
  <path id="Path_49" data-name="Path 49" d="M116.707,37.77a.732.732,0,0,1-.229-.535V17.416a.8.8,0,0,1,.214-.565.713.713,0,0,1,.55-.23h8.044a10.459,10.459,0,0,1,7.029,2.154,8.047,8.047,0,0,1,2.628,6.186q.03.888.032,2.352t-.032,2.319Q134.637,38,125.439,38h-8.2a.735.735,0,0,1-.535-.23Zm8.579-4.349a3.875,3.875,0,0,0,2.843-.916,4.216,4.216,0,0,0,.977-2.932q.063-.888.062-2.291t-.07-2.268a3.967,3.967,0,0,0-1.054-2.886,4.094,4.094,0,0,0-2.923-.924h-2.9V33.423Z" fill="#fff"/>
  <path id="Path_50" data-name="Path 50" d="M138.679,37.77a.725.725,0,0,1-.17-.244.746.746,0,0,1-.059-.291V17.384a.732.732,0,0,1,.055-.3.718.718,0,0,1,.174-.25.757.757,0,0,1,.535-.214h4.368a.73.73,0,0,1,.715.466.72.72,0,0,1,.049.3V37.24a.757.757,0,0,1-.213.535.722.722,0,0,1-.551.229h-4.375a.736.736,0,0,1-.288-.063A.724.724,0,0,1,138.679,37.77Z" fill="#fff"/>
  <path id="Path_51" data-name="Path 51" d="M150.52,36.155A8.085,8.085,0,0,1,147.868,30q-.03-.855-.031-2.78t.031-2.816a7.657,7.657,0,0,1,2.673-5.964,10.541,10.541,0,0,1,6.922-2.122,12.814,12.814,0,0,1,5.12.946,8.222,8.222,0,0,1,3.331,2.429,5.33,5.33,0,0,1,1.206,3.04.679.679,0,0,1-.673.673H161.7a.87.87,0,0,1-.474-.108,1.16,1.16,0,0,1-.319-.32,3.634,3.634,0,0,0-1.177-1.466,3.713,3.713,0,0,0-2.277-.611q-3.545,0-3.668,3.666-.028.855-.029,2.626t.029,2.659q.123,3.878,3.729,3.88a4.214,4.214,0,0,0,2.817-.886,3.3,3.3,0,0,0,1.033-2.7V29.6h-2.72a.783.783,0,0,1-.565-.228.793.793,0,0,1-.172-.259.78.78,0,0,1-.056-.306V26.426a.78.78,0,0,1,.056-.306.793.793,0,0,1,.172-.259.783.783,0,0,1,.565-.228h7.763a.781.781,0,0,1,.737.488.8.8,0,0,1,.057.306v3.543A8.082,8.082,0,0,1,166,34.442a7.691,7.691,0,0,1-3.407,2.871,12.374,12.374,0,0,1-5.137.994A10.29,10.29,0,0,1,150.52,36.155Z" fill="#fff"/>
  <path id="Path_52" data-name="Path 52" d="M170.826,37.77a.725.725,0,0,1-.17-.244.746.746,0,0,1-.059-.291V17.384a.732.732,0,0,1,.055-.3.718.718,0,0,1,.174-.25.757.757,0,0,1,.535-.214h4.37a.732.732,0,0,1,.764.764V37.24a.768.768,0,0,1-.214.535.721.721,0,0,1-.55.229h-4.373a.735.735,0,0,1-.532-.234Z" fill="#fff"/>
  <path id="Path_53" data-name="Path 53" d="M185.585,37.79a.717.717,0,0,1-.174-.25.732.732,0,0,1-.055-.3V21.6h-5.381a.794.794,0,0,1-.565-.214.713.713,0,0,1-.175-.25.7.7,0,0,1-.055-.3V17.416a.78.78,0,0,1,.058-.306.794.794,0,0,1,.172-.259.787.787,0,0,1,.565-.23h16.592a.781.781,0,0,1,.566.229.788.788,0,0,1,.23.566v3.421a.732.732,0,0,1-.055.3.717.717,0,0,1-.174.25.8.8,0,0,1-.567.214H191.19V37.24a.721.721,0,0,1-.229.55A.8.8,0,0,1,190.4,38h-4.249A.8.8,0,0,1,185.585,37.79Z" fill="#fff"/>
  <path id="Path_54" data-name="Path 54" d="M196.251,37.805a.6.6,0,0,1-.145-.2.611.611,0,0,1-.054-.242.911.911,0,0,1,.03-.275l7.126-19.581a1.192,1.192,0,0,1,1.221-.886H209.2a1.2,1.2,0,0,1,1.223.886l7.126,19.581a.911.911,0,0,1,.03.275.683.683,0,0,1-.641.641h-3.978a1.06,1.06,0,0,1-1.039-.672l-1.1-2.962h-8.006l-1.1,2.962a1.06,1.06,0,0,1-1.039.672H196.7a.608.608,0,0,1-.444-.2Zm7.837-8.018h5.441L206.809,22Z" fill="#fff"/>
  <path id="Path_55" data-name="Path 55" d="M220.117,37.77a.724.724,0,0,1-.17-.244.746.746,0,0,1-.059-.291V17.384a.721.721,0,0,1,.229-.55.755.755,0,0,1,.535-.214h4.277a.734.734,0,0,1,.3.049.72.72,0,0,1,.252.165.733.733,0,0,1,.165.253.72.72,0,0,1,.049.3V33.208h9.168a.781.781,0,0,1,.794.793V37.24a.732.732,0,0,1-.055.3.717.717,0,0,1-.174.25.8.8,0,0,1-.565.214H220.652a.729.729,0,0,1-.535-.234Z" fill="#fff"/>
  <path id="Path_56" data-name="Path 56" d="M119.166,62a8.089,8.089,0,0,1-2.651-6.156q-.03-.855-.03-2.78t.03-2.816a7.675,7.675,0,0,1,2.675-5.972,10.5,10.5,0,0,1,6.92-2.124,12.784,12.784,0,0,1,5.119.948,8.228,8.228,0,0,1,3.331,2.429,5.261,5.261,0,0,1,1.207,3.038.68.68,0,0,1-.671.673h-4.745a.886.886,0,0,1-.474-.106,1.2,1.2,0,0,1-.32-.321,3.623,3.623,0,0,0-1.176-1.466,3.717,3.717,0,0,0-2.277-.611q-3.546,0-3.668,3.666-.03.855-.03,2.627t.03,2.651q.123,3.88,3.729,3.88a4.213,4.213,0,0,0,2.817-.886,3.31,3.31,0,0,0,1.039-2.689v-.55h-2.726a.781.781,0,0,1-.794-.793V52.276a.766.766,0,0,1,.057-.306.78.78,0,0,1,.737-.489h7.769a.78.78,0,0,1,.794.8v3.552a8.09,8.09,0,0,1-1.206,4.473,7.7,7.7,0,0,1-3.408,2.871,12.37,12.37,0,0,1-5.137.994A10.339,10.339,0,0,1,119.166,62Z" fill="#fff"/>
  <path id="Path_57" data-name="Path 57" d="M139.473,63.623a.732.732,0,0,1-.229-.535V43.264a.794.794,0,0,1,.214-.565.72.72,0,0,1,.55-.23h14.418a.786.786,0,0,1,.794.8v3.023a.733.733,0,0,1-.055.3.714.714,0,0,1-.174.25.793.793,0,0,1-.565.214h-9.65v3.88h8.984a.783.783,0,0,1,.793.8V54.5a.78.78,0,0,1-.056.306.8.8,0,0,1-.172.259.783.783,0,0,1-.565.228h-8.984v3.976h9.9a.787.787,0,0,1,.565.23.779.779,0,0,1,.172.259.763.763,0,0,1,.058.306V63.09a.7.7,0,0,1-.055.3.717.717,0,0,1-.175.25.8.8,0,0,1-.565.214H140.008a.743.743,0,0,1-.292-.06A.725.725,0,0,1,139.473,63.623Z" fill="#fff"/>
  <path id="Path_58" data-name="Path 58" d="M159.094,63.623a.737.737,0,0,1-.171-.243.713.713,0,0,1-.059-.292V43.264a.8.8,0,0,1,.213-.565.725.725,0,0,1,.551-.23h3.453a1.116,1.116,0,0,1,1.039.582l7.213,11.394V43.264a.794.794,0,0,1,.214-.565.709.709,0,0,1,.25-.175.718.718,0,0,1,.3-.056h3.881a.717.717,0,0,1,.548.23.8.8,0,0,1,.216.565V63.058a.8.8,0,0,1-.216.565.7.7,0,0,1-.249.174.718.718,0,0,1-.3.055h-3.46a1.113,1.113,0,0,1-1.039-.58L164.3,52.338V63.091a.711.711,0,0,1-.231.55.8.8,0,0,1-.565.214h-3.876a.731.731,0,0,1-.532-.232Z" fill="#fff"/>
  <path id="Path_59" data-name="Path 59" d="M181.124,63.623a.725.725,0,0,1-.17-.244.746.746,0,0,1-.059-.291V43.264a.794.794,0,0,1,.214-.565.72.72,0,0,1,.55-.23h14.418a.783.783,0,0,1,.565.23.792.792,0,0,1,.229.565v3.023a.72.72,0,0,1-.229.55.791.791,0,0,1-.565.214H186.42v3.88H195.4a.783.783,0,0,1,.565.23.781.781,0,0,1,.229.565V54.5a.78.78,0,0,1-.794.793H186.42v3.976h9.9a.79.79,0,0,1,.738.49.8.8,0,0,1,.058.306V63.09a.7.7,0,0,1-.055.3.725.725,0,0,1-.175.25.8.8,0,0,1-.566.214H181.652a.739.739,0,0,1-.528-.23Z" fill="#fff"/>
  <path id="Path_60" data-name="Path 60" d="M200.744,63.623a.734.734,0,0,1-.231-.535V43.264a.8.8,0,0,1,.214-.565.72.72,0,0,1,.55-.23h8.4a9.8,9.8,0,0,1,6.311,1.834,6.257,6.257,0,0,1,2.277,5.162,6.419,6.419,0,0,1-.994,3.635,6.569,6.569,0,0,1-2.735,2.319l4.125,7.455a.769.769,0,0,1,.093.331.632.632,0,0,1-.184.442.6.6,0,0,1-.458.2h-4.308a1.273,1.273,0,0,1-1.253-.828l-3.363-6.626h-2.933V63.08a.717.717,0,0,1-.055.3.7.7,0,0,1-.174.25.8.8,0,0,1-.565.214h-4.188a.73.73,0,0,1-.533-.22Zm8.907-11.715a2.777,2.777,0,0,0,2-.663,2.4,2.4,0,0,0,.688-1.822,2.551,2.551,0,0,0-.688-1.864,2.669,2.669,0,0,0-2-.7h-3.392V51.9Z" fill="#fff"/>
  <path id="Path_61" data-name="Path 61" d="M220.117,63.653a.6.6,0,0,1-.146-.2.611.611,0,0,1-.053-.242.88.88,0,0,1,.031-.275l7.126-19.581a1.2,1.2,0,0,1,1.223-.886h4.767a1.194,1.194,0,0,1,1.223.886l7.126,19.581a.881.881,0,0,1,.031.275.683.683,0,0,1-.641.641h-3.978a1.058,1.058,0,0,1-1.037-.671l-1.1-2.964h-8.006l-1.1,2.964a1.059,1.059,0,0,1-1.039.671h-3.977a.609.609,0,0,1-.449-.2Zm7.838-8.018h5.439l-2.719-7.786Z" fill="#fff"/>
  <path id="Path_62" data-name="Path 62" d="M246.52,63.638a.7.7,0,0,1-.175-.25.718.718,0,0,1-.056-.3V47.448h-5.377a.8.8,0,0,1-.566-.214.728.728,0,0,1-.174-.25.716.716,0,0,1-.054-.3V43.264a.784.784,0,0,1,.794-.8h16.593a.783.783,0,0,1,.794.8v3.421a.716.716,0,0,1-.054.3.728.728,0,0,1-.174.25.8.8,0,0,1-.566.214h-5.377v15.64a.721.721,0,0,1-.231.55.8.8,0,0,1-.565.214h-4.239a.8.8,0,0,1-.573-.214Z" fill="#fff"/>
  <path id="Path_63" data-name="Path 63" d="M261.218,63.623a.732.732,0,0,1-.229-.535V43.237a.717.717,0,0,1,.229-.548.762.762,0,0,1,.535-.215h4.37a.738.738,0,0,1,.55.214.746.746,0,0,1,.164.252.737.737,0,0,1,.05.3V63.088a.757.757,0,0,1-.214.535.72.72,0,0,1-.55.229h-4.37a.737.737,0,0,1-.535-.229Z" fill="#fff"/>
  <path id="Path_64" data-name="Path 64" d="M273.06,62.049a8.028,8.028,0,0,1-2.651-6.2q-.03-.855-.03-2.627t.03-2.65a8.066,8.066,0,0,1,2.674-6.216,10.188,10.188,0,0,1,6.823-2.192,10.082,10.082,0,0,1,6.795,2.185,8.092,8.092,0,0,1,2.673,6.216q.063,1.771.061,2.65,0,.916-.061,2.627a8.076,8.076,0,0,1-2.652,6.2,12.1,12.1,0,0,1-13.662.007Zm9.38-3.436a4.259,4.259,0,0,0,1.009-2.949c.042-1.18.062-2.026.062-2.535s-.02-1.333-.062-2.475a4.24,4.24,0,0,0-1.009-2.947,3.863,3.863,0,0,0-5.1,0,4.257,4.257,0,0,0-1.007,2.947c-.022.571-.032,1.395-.032,2.475s.01,1.945.032,2.535a4.246,4.246,0,0,0,1.007,2.949,3.449,3.449,0,0,0,2.568.963A3.394,3.394,0,0,0,282.44,58.613Z" fill="#fff"/>
  <path id="Path_65" data-name="Path 65" d="M293.121,63.623a.732.732,0,0,1-.229-.535V43.264a.8.8,0,0,1,.214-.565.719.719,0,0,1,.55-.23h3.452a1.116,1.116,0,0,1,1.039.582l7.213,11.394V43.264a.8.8,0,0,1,.213-.565.725.725,0,0,1,.551-.23h3.881a.72.72,0,0,1,.55.23.8.8,0,0,1,.214.565V63.058a.8.8,0,0,1-.214.565.719.719,0,0,1-.55.229h-3.454a1.116,1.116,0,0,1-1.039-.58l-7.181-10.933V63.091a.716.716,0,0,1-.054.3.728.728,0,0,1-.174.25.8.8,0,0,1-.567.214h-3.875a.734.734,0,0,1-.54-.232Z" fill="#fff"/>
  <path id="Path_66" data-name="Path 66" d="M118.938,87.9q-2.462-2.107-2.46-6.323V69.111a.8.8,0,0,1,.214-.565.717.717,0,0,1,.55-.229h4.186a.783.783,0,0,1,.566.228.793.793,0,0,1,.172.259.78.78,0,0,1,.056.306v12.4a3.975,3.975,0,0,0,.9,2.839,3.4,3.4,0,0,0,2.583.948,3.368,3.368,0,0,0,2.582-.963,3.975,3.975,0,0,0,.9-2.825v-12.4a.764.764,0,0,1,.057-.306.775.775,0,0,1,.171-.259.794.794,0,0,1,.26-.172.781.781,0,0,1,.306-.057h4.156a.781.781,0,0,1,.794.793V81.574q0,4.216-2.445,6.323a11.94,11.94,0,0,1-13.552,0Z" fill="#fff"/>
  <path id="Path_67" data-name="Path 67" d="M138.19,89.471a.76.76,0,0,1-.173-.259.782.782,0,0,1-.056-.306V85.79a1.252,1.252,0,0,1,.121-.611,4.226,4.226,0,0,1,.332-.489l9.722-11.634h-9.114a.783.783,0,0,1-.764-.764V69.111a.794.794,0,0,1,.214-.565.719.719,0,0,1,.55-.229h15.554a.783.783,0,0,1,.566.228.793.793,0,0,1,.172.259.78.78,0,0,1,.056.306V72.2a1.539,1.539,0,0,1-.4,1.039L145.593,84.9h9.358a.783.783,0,0,1,.565.23.781.781,0,0,1,.229.565v3.237a.72.72,0,0,1-.229.55.8.8,0,0,1-.565.214h-16.2a.769.769,0,0,1-.565-.229Z" fill="#fff"/>
  <path id="Path_68" data-name="Path 68" d="M159.154,89.471a.723.723,0,0,1-.171-.243.731.731,0,0,1-.06-.292V69.111a.8.8,0,0,1,.214-.565.723.723,0,0,1,.55-.229h9.447q3.88,0,5.775,1.589a5.571,5.571,0,0,1,1.894,4.521,4.175,4.175,0,0,1-.779,2.535,5.012,5.012,0,0,1-1.726,1.557,5.135,5.135,0,0,1,2.964,4.675,5.925,5.925,0,0,1-2.031,4.8,8.809,8.809,0,0,1-5.822,1.71h-9.722a.732.732,0,0,1-.29-.059A.724.724,0,0,1,159.154,89.471Zm9.335-12.693a2.366,2.366,0,0,0,1.742-.61,2.155,2.155,0,0,0,.611-1.589,2.089,2.089,0,0,0-.6-1.542,2.384,2.384,0,0,0-1.757-.6h-3.82v4.337Zm.275,8.8a2.438,2.438,0,0,0,1.848-.687,2.531,2.531,0,0,0-.015-3.421,2.427,2.427,0,0,0-1.833-.687h-4.1v4.8Z" fill="#fff"/>
  <path id="Path_69" data-name="Path 69" d="M180.757,89.471a.736.736,0,0,1-.169-.244.712.712,0,0,1-.059-.291V69.111a.8.8,0,0,1,.213-.565.721.721,0,0,1,.551-.229h14.418a.784.784,0,0,1,.795.793v3.025a.726.726,0,0,1-.23.55.8.8,0,0,1-.565.214h-9.657v3.878h8.985a.783.783,0,0,1,.794.8v2.78a.764.764,0,0,1-.057.306.775.775,0,0,1-.171.259.783.783,0,0,1-.566.228h-8.985v3.976h9.9a.784.784,0,0,1,.565.23.792.792,0,0,1,.229.565v3.023a.72.72,0,0,1-.229.55.8.8,0,0,1-.565.214H181.3a.73.73,0,0,1-.3-.06A.74.74,0,0,1,180.757,89.471Z" fill="#fff"/>
  <path id="Path_70" data-name="Path 70" d="M200.376,89.471a.724.724,0,0,1-.17-.244.746.746,0,0,1-.059-.291V69.111a.794.794,0,0,1,.214-.565.719.719,0,0,1,.55-.229H205a.722.722,0,0,1,.3.055.73.73,0,0,1,.251.174.8.8,0,0,1,.213.565v6.66l5.41-6.843a1.24,1.24,0,0,1,1.191-.61h4.675a.679.679,0,0,1,.642.641.5.5,0,0,1-.024.2.509.509,0,0,1-.1.171l-7.127,9.226,7.7,10.142a.509.509,0,0,1,.1.171.5.5,0,0,1,.024.2.614.614,0,0,1-.053.243.608.608,0,0,1-.146.2.643.643,0,0,1-.474.2h-4.806a1.423,1.423,0,0,1-.793-.2,1.277,1.277,0,0,1-.43-.413l-5.8-7.455v7.3a.758.758,0,0,1-.214.535.719.719,0,0,1-.55.229h-4.1a.737.737,0,0,1-.52-.229Z" fill="#fff"/>
  <path id="Path_71" data-name="Path 71" d="M220.789,89.471a.735.735,0,0,1-.169-.244.712.712,0,0,1-.059-.291V69.08a.7.7,0,0,1,.055-.3.714.714,0,0,1,.173-.25.761.761,0,0,1,.536-.214h4.368a.734.734,0,0,1,.3.049.72.72,0,0,1,.252.165.733.733,0,0,1,.165.253.72.72,0,0,1,.049.3V88.936a.758.758,0,0,1-.214.535.717.717,0,0,1-.55.229h-4.368a.738.738,0,0,1-.536-.229Z" fill="#fff"/>
  <path id="Path_72" data-name="Path 72" d="M233.67,89.149a7.36,7.36,0,0,1-3.149-2.259,5.249,5.249,0,0,1-1.13-3.055.586.586,0,0,1,.048-.251.6.6,0,0,1,.149-.208.68.68,0,0,1,.474-.182h4.065a1.288,1.288,0,0,1,.6.121,1.993,1.993,0,0,1,.505.429,3.057,3.057,0,0,0,1.237,1.206,4.547,4.547,0,0,0,2.247.474,5.227,5.227,0,0,0,2.535-.5,1.553,1.553,0,0,0,.887-1.39,1.355,1.355,0,0,0-.459-1.055,4.045,4.045,0,0,0-1.467-.732q-1.01-.32-2.9-.717a12.615,12.615,0,0,1-5.53-2.231,5.213,5.213,0,0,1-1.835-4.276,5.686,5.686,0,0,1,1.056-3.376,6.855,6.855,0,0,1,2.994-2.306,11.489,11.489,0,0,1,4.508-.828,10.811,10.811,0,0,1,4.66.933,7.972,7.972,0,0,1,3.025,2.319A4.934,4.934,0,0,1,247.3,74a.681.681,0,0,1-.182.474.606.606,0,0,1-.208.15.6.6,0,0,1-.251.049h-4.279a1.18,1.18,0,0,1-1.039-.55,1.88,1.88,0,0,0-.947-1.083A3.734,3.734,0,0,0,238.5,72.6a3.632,3.632,0,0,0-1.989.459,1.5,1.5,0,0,0-.7,1.343,1.536,1.536,0,0,0,.916,1.39,14.012,14.012,0,0,0,3.422,1.024,19.476,19.476,0,0,1,4.569,1.3,5.772,5.772,0,0,1,2.506,2.016,5.6,5.6,0,0,1,.81,3.131,5.686,5.686,0,0,1-1.191,3.6,7.482,7.482,0,0,1-3.3,2.336,13.4,13.4,0,0,1-4.828.81A13.24,13.24,0,0,1,233.67,89.149Z" fill="#fff"/>
  <path id="Path_73" data-name="Path 73" d="M255.687,89.486a.728.728,0,0,1-.174-.25.716.716,0,0,1-.054-.3V73.3h-5.383a.8.8,0,0,1-.565-.214.72.72,0,0,1-.229-.55V69.111a.78.78,0,0,1,.794-.793H266.67a.782.782,0,0,1,.737.488.8.8,0,0,1,.057.306v3.421a.72.72,0,0,1-.229.55.8.8,0,0,1-.565.214h-5.38v15.64a.717.717,0,0,1-.054.3.728.728,0,0,1-.174.25.8.8,0,0,1-.565.214h-4.248A.8.8,0,0,1,255.687,89.486Z" fill="#fff"/>
  <path id="Path_74" data-name="Path 74" d="M266.352,89.5a.608.608,0,0,1-.2-.444.879.879,0,0,1,.031-.275L273.31,69.2a1.2,1.2,0,0,1,1.223-.885H279.3a1.194,1.194,0,0,1,1.223.885l7.126,19.581a.943.943,0,0,1,.031.275.679.679,0,0,1-.641.641h-3.977a1.062,1.062,0,0,1-1.04-.671l-1.1-2.964h-8.008l-1.1,2.964a1.059,1.059,0,0,1-1.039.671H266.8a.612.612,0,0,1-.449-.2Zm7.838-8.02h5.439L276.91,73.7Z" fill="#fff"/>
  <path id="Path_75" data-name="Path 75" d="M290.217,89.471a.736.736,0,0,1-.169-.244.712.712,0,0,1-.059-.291V69.111a.794.794,0,0,1,.214-.565.717.717,0,0,1,.55-.229h3.453a1.124,1.124,0,0,1,1.04.58l7.21,11.394V69.111a.794.794,0,0,1,.214-.565.719.719,0,0,1,.55-.229H307.1a.722.722,0,0,1,.3.055.73.73,0,0,1,.251.174.8.8,0,0,1,.213.565V88.906a.8.8,0,0,1-.213.565.731.731,0,0,1-.251.174.722.722,0,0,1-.3.055h-3.453a1.116,1.116,0,0,1-1.038-.575l-7.182-10.934V88.942a.721.721,0,0,1-.229.55.8.8,0,0,1-.565.214h-3.881a.732.732,0,0,1-.292-.062A.745.745,0,0,1,290.217,89.471Z" fill="#fff"/>
  <path id="Path_76" data-name="Path 76" d="M46.982,7.62a4.144,4.144,0,0,1,2.1.57L84.3,28.86a4.141,4.141,0,0,1,2.045,3.572V73.884A4.141,4.141,0,0,1,84.3,77.456L49.081,98.132a4.144,4.144,0,0,1-4.2,0L9.668,77.462a4.141,4.141,0,0,1-2.045-3.578V32.431A4.141,4.141,0,0,1,9.668,28.86L44.884,8.19A4.144,4.144,0,0,1,46.982,7.62Zm0-7.62a11.787,11.787,0,0,0-5.958,1.618L5.809,22.288A11.807,11.807,0,0,0,0,32.431V73.884A11.8,11.8,0,0,0,5.809,84.026L41.025,104.7a11.771,11.771,0,0,0,11.916,0L88.165,84.032a11.8,11.8,0,0,0,5.8-10.148V32.431a11.808,11.808,0,0,0-5.8-10.143L52.94,1.618A11.786,11.786,0,0,0,46.982,0Z" fill="#3e67ae"/>
  <path id="Path_77" data-name="Path 77" d="M47.011,90.027A3.728,3.728,0,0,1,43.282,86.3V20.045a3.729,3.729,0,0,1,7.458,0V86.309a3.728,3.728,0,0,1-3.729,3.719Z" fill="#fed309"/>
  <path id="Path_78" data-name="Path 78" d="M17.981,58.676a3.728,3.728,0,0,1-3.729-3.727V36.611a3.729,3.729,0,0,1,7.458,0V54.949a3.728,3.728,0,0,1-3.729,3.727Z" fill="#e4253a"/>
  <path id="Path_79" data-name="Path 79" d="M17.981,73.462a3.728,3.728,0,0,1-3.729-3.719V65.6a3.729,3.729,0,0,1,7.458,0v4.142a3.728,3.728,0,0,1-3.729,3.719Z" fill="#e4253a"/>
  <path id="Path_80" data-name="Path 80" d="M32.495,81.745a3.73,3.73,0,0,1-3.729-3.727V44.894a3.729,3.729,0,0,1,7.458,0V78.025a3.728,3.728,0,0,1-3.729,3.719Z" fill="#f08921"/>
  <path id="Path_81" data-name="Path 81" d="M32.495,36.188a3.73,3.73,0,0,1-3.729-3.727V28.328a3.729,3.729,0,0,1,7.458,0v4.142a3.728,3.728,0,0,1-3.729,3.719Z" fill="#f08921"/>
  <path id="Path_82" data-name="Path 82" d="M61.5,65.179a3.73,3.73,0,0,1-3.729-3.727V28.328a3.729,3.729,0,0,1,7.457,0V61.46A3.728,3.728,0,0,1,61.5,65.179Z" fill="#60b565"/>
  <path id="Path_83" data-name="Path 83" d="M61.5,81.744a3.73,3.73,0,0,1-3.729-3.727V73.884a3.729,3.729,0,0,1,7.457,0v4.141A3.728,3.728,0,0,1,61.5,81.744Z" fill="#60b565"/>
  <path id="Path_84" data-name="Path 84" d="M75.984,73.462a3.728,3.728,0,0,1-3.729-3.719V51.386a3.729,3.729,0,0,1,7.458,0V69.743a3.728,3.728,0,0,1-3.729,3.719Z" fill="#9c519a"/>
  <path id="Path_85" data-name="Path 85" d="M75.984,44.471a3.728,3.728,0,0,1-3.729-3.719V36.611a3.729,3.729,0,0,1,7.458,0v4.142a3.728,3.728,0,0,1-3.729,3.719Z" fill="#9c519a"/>
</svg>
